<?xml version="1.0" standalone="no"?>
<!DOCTYPE svg PUBLIC "-//W3C//DTD SVG 20010904//EN"
 "http://www.w3.org/TR/2001/REC-SVG-20010904/DTD/svg10.dtd">
<svg version="1.0" xmlns="http://www.w3.org/2000/svg"
 width="168.000000pt" height="112.000000pt" viewBox="0 0 168.000000 112.000000"
 preserveAspectRatio="xMidYMid meet">

<g transform="translate(0.000000,112.000000) scale(0.100000,-0.100000)"
fill="#000000" stroke="none">
<path d="M1287 1076 c-22 -34 -131 -113 -209 -152 -37 -19 -143 -64 -235 -100
-209 -83 -279 -121 -363 -201 -77 -72 -123 -151 -139 -237 -11 -61 -7 -84 10
-54 25 44 66 80 127 110 l67 33 210 6 c225 6 294 18 390 65 93 47 169 139 185
227 4 20 6 37 4 37 -2 0 -22 -13 -44 -29 -46 -33 -148 -76 -206 -86 l-39 -7
60 37 c129 79 203 185 212 309 6 71 -3 83 -30 42z"/>
<path d="M273 283 c-9 -3 -13 -30 -13 -84 l0 -79 38 0 c108 1 124 144 17 163
-16 3 -36 3 -42 0z m77 -33 c41 -41 15 -110 -42 -110 -28 0 -28 0 -28 65 0 63
1 65 25 65 14 0 34 -9 45 -20z"/>
<path d="M481 250 l-51 -40 0 35 c0 19 -4 35 -10 35 -6 0 -10 -33 -10 -80 0
-47 4 -80 10 -80 6 0 10 15 10 33 0 38 15 57 46 57 31 0 54 -26 54 -61 0 -16
5 -29 11 -29 21 0 1 74 -26 95 l-25 21 27 27 c40 39 23 33 -36 -13z"/>
<path d="M746 255 c-9 -21 -16 -39 -16 -41 0 -1 -5 -15 -11 -31 -11 -28 -11
-28 -34 32 -12 32 -28 61 -34 63 -8 3 -9 -2 -1 -20 9 -18 7 -32 -6 -63 l-16
-40 -20 55 c-20 54 -38 84 -38 64 0 -5 13 -43 29 -84 l29 -75 17 43 c9 23 20
42 24 42 5 0 14 -18 21 -40 7 -22 16 -37 20 -33 13 16 62 154 57 160 -3 3 -13
-12 -21 -32z"/>
<path d="M758 185 c-9 -17 -19 -41 -22 -55 -6 -21 -5 -22 4 -7 14 22 56 22 64
1 4 -9 9 -14 12 -11 3 3 -6 27 -19 53 l-24 48 -15 -29z m32 -27 c0 -5 -7 -8
-15 -8 -15 0 -20 21 -8 33 7 7 23 -11 23 -25z"/>
<path d="M832 160 c-1 -42 1 -50 8 -32 5 12 16 22 25 22 9 0 20 -10 25 -22 l9
-23 0 23 c1 12 -6 25 -14 28 -13 5 -13 9 -3 22 11 15 9 14 -14 0 -26 -17 -27
-17 -31 10 -2 15 -4 2 -5 -28z"/>
<path d="M1070 197 c0 -7 -12 -13 -27 -12 -24 0 -28 -4 -31 -32 -2 -18 0 -34
5 -35 4 0 20 -2 36 -3 26 -2 27 0 27 46 0 27 -2 49 -5 49 -3 0 -5 -6 -5 -13z
m-5 -47 c0 -29 -32 -41 -41 -16 -9 24 4 48 23 44 12 -2 18 -12 18 -28z"/>
<path d="M920 170 c-17 -31 4 -61 40 -58 27 2 30 6 30 38 0 32 -3 36 -30 38
-20 2 -32 -4 -40 -18z m58 -16 c3 -22 -21 -39 -39 -28 -11 6 -12 38 -2 48 13
13 38 1 41 -20z"/>
<path d="M1107 183 c-4 -3 -7 -19 -7 -34 0 -30 33 -50 52 -31 8 8 4 9 -11 5
-27 -7 -28 13 -1 27 28 15 26 40 -3 40 -13 0 -27 -3 -30 -7z m30 -20 c-9 -9
-19 -14 -23 -11 -10 10 6 28 24 28 15 0 15 -1 -1 -17z"/>
<path d="M1181 147 l2 -42 6 35 c4 22 12 36 24 38 14 3 17 -4 18 -35 l2 -38 6
35 c8 47 41 55 41 11 0 -17 5 -31 10 -31 13 0 13 26 0 50 -7 14 -22 18 -60 18
l-50 1 1 -42z"/>
<path d="M1313 150 c0 -25 2 -35 4 -22 2 12 2 32 0 45 -2 12 -4 2 -4 -23z"/>
<path d="M1344 176 c-14 -37 23 -83 47 -59 9 9 7 11 -10 6 -29 -7 -27 11 4 31
14 9 23 21 20 26 -9 15 -55 12 -61 -4z m33 -13 c-9 -9 -19 -14 -23 -11 -10 10
6 28 24 28 15 0 15 -1 -1 -17z"/>
</g>
</svg>
