<?xml version="1.0" encoding="UTF-8" standalone="no"?>
<svg
   xmlns:dc="http://purl.org/dc/elements/1.1/"
   xmlns:cc="http://creativecommons.org/ns#"
   xmlns:rdf="http://www.w3.org/1999/02/22-rdf-syntax-ns#"
   xmlns:svg="http://www.w3.org/2000/svg"
   xmlns="http://www.w3.org/2000/svg"
   xmlns:sodipodi="http://sodipodi.sourceforge.net/DTD/sodipodi-0.dtd"
   xmlns:inkscape="http://www.inkscape.org/namespaces/inkscape"
   version="1.1"
   width="512"
   height="512"
   x="0"
   y="0"
   viewBox="0 0 24 24"
   style="enable-background:new 0 0 512 512"
   xml:space="preserve"
   class=""
   id="svg4134"
   sodipodi:docname="square.svg"
   inkscape:version="0.92.5 (2060ec1f9f, 2020-04-08)"><metadata
     id="metadata4140"><rdf:RDF><cc:Work
         rdf:about=""><dc:format>image/svg+xml</dc:format><dc:type
           rdf:resource="http://purl.org/dc/dcmitype/StillImage" /></cc:Work></rdf:RDF></metadata><defs
     id="defs4138" /><sodipodi:namedview
     pagecolor="#ffffff"
     bordercolor="#666666"
     borderopacity="1"
     objecttolerance="10"
     gridtolerance="10"
     guidetolerance="10"
     inkscape:pageopacity="0"
     inkscape:pageshadow="2"
     inkscape:window-width="1294"
     inkscape:window-height="704"
     id="namedview4136"
     showgrid="false"
     inkscape:zoom="0.4609375"
     inkscape:cx="256"
     inkscape:cy="256"
     inkscape:window-x="72"
     inkscape:window-y="27"
     inkscape:window-maximized="1"
     inkscape:current-layer="svg4134" /><g
     transform="matrix(0.98,0,0,0.98,0.54508475,0.13830508)"
     id="g4132"
     style="fill:#ff0000"
     inkscape:transform-center-x="0.71186441"
     inkscape:transform-center-y="-0.30508475"><path
       d="M 21.25,0 H 2.75 C 1.233,0 0,1.233 0,2.75 v 18.5 C 0,22.767 1.233,24 2.75,24 h 18.5 C 22.767,24 24,22.767 24,21.25 V 2.75 C 24,1.233 22.767,0 21.25,0 Z M 16,17 H 8 C 7.447,17 7,16.552 7,16 7,15.448 7.447,15 8,15 h 8 c 0.553,0 1,0.448 1,1 0,0.552 -0.447,1 -1,1 z m 0,-4 H 8 C 7.447,13 7,12.552 7,12 7,11.448 7.447,11 8,11 h 8 c 0.553,0 1,0.448 1,1 0,0.552 -0.447,1 -1,1 z M 16,9 H 8 C 7.447,9 7,8.552 7,8 7,7.448 7.447,7 8,7 h 8 c 0.553,0 1,0.448 1,1 0,0.552 -0.447,1 -1,1 z"
       data-original="#000000"
       style="fill:#ff0000"
       class=""
       id="path4130"
       inkscape:connector-curvature="0" /></g></svg>