<?xml version="1.0" encoding="UTF-8" standalone="no"?>
<!-- Generator: Adobe Illustrator 18.0.0, SVG Export Plug-In . SVG Version: 6.00 Build 0)  -->

<svg
   xmlns:dc="http://purl.org/dc/elements/1.1/"
   xmlns:cc="http://creativecommons.org/ns#"
   xmlns:rdf="http://www.w3.org/1999/02/22-rdf-syntax-ns#"
   xmlns:svg="http://www.w3.org/2000/svg"
   xmlns="http://www.w3.org/2000/svg"
   xmlns:sodipodi="http://sodipodi.sourceforge.net/DTD/sodipodi-0.dtd"
   xmlns:inkscape="http://www.inkscape.org/namespaces/inkscape"
   fill="white"
   width="14"
   height="14"
   version="1.1"
   id="Capa_1"
   x="0px"
   y="0px"
   viewBox="0 0 147.586 147.586"
   style="enable-background:new 0 0 147.586 147.586;"
   xml:space="preserve"
   sodipodi:docname="wifi-signal.svg"
   inkscape:version="0.92.5 (2060ec1f9f, 2020-04-08)"><metadata
   id="metadata184"><rdf:RDF><cc:Work
       rdf:about=""><dc:format>image/svg+xml</dc:format><dc:type
         rdf:resource="http://purl.org/dc/dcmitype/StillImage" /></cc:Work></rdf:RDF></metadata><defs
   id="defs182" /><sodipodi:namedview
   pagecolor="#ffffff"
   bordercolor="#666666"
   borderopacity="1"
   objecttolerance="10"
   gridtolerance="10"
   guidetolerance="10"
   inkscape:pageopacity="0"
   inkscape:pageshadow="2"
   inkscape:window-width="1294"
   inkscape:window-height="704"
   id="namedview180"
   showgrid="false"
   inkscape:zoom="3.5640237"
   inkscape:cx="73.792999"
   inkscape:cy="73.792999"
   inkscape:window-x="72"
   inkscape:window-y="27"
   inkscape:window-maximized="1"
   inkscape:current-layer="Capa_1" />
<g
   id="g147"
   transform="matrix(0.67215485,0.67215485,-0.66793233,0.66793233,51.315531,-20.607123)">
	<path
   style="fill:white"
   d="m 48.712,94.208 c -2.929,2.929 -2.929,7.678 0,10.606 2.93,2.929 7.678,2.929 10.607,0 7.98,-7.98 20.967,-7.98 28.947,0 1.465,1.464 3.385,2.197 5.304,2.197 1.919,0 3.839,-0.732 5.304,-2.197 2.929,-2.929 2.929,-7.678 0,-10.606 -13.83,-13.83 -36.332,-13.83 -50.162,0 z"
   id="path139"
   inkscape:connector-curvature="0" />
	<path
   style="fill:#white"
   d="m 26.73,72.225 c -2.929,2.929 -2.929,7.678 0,10.606 2.929,2.928 7.677,2.93 10.607,0 20.102,-20.102 52.811,-20.102 72.912,0 1.465,1.464 3.385,2.197 5.304,2.197 1.919,0 3.839,-0.732 5.304,-2.197 2.929,-2.929 2.929,-7.678 0,-10.606 -25.951,-25.95 -68.176,-25.95 -94.127,0 z"
   id="path141"
   inkscape:connector-curvature="0" />
	<path
   style="fill:#white"
   d="M 145.39,47.692 C 105.911,8.213 41.675,8.213 2.197,47.692 c -2.929,2.929 -2.929,7.678 0,10.606 2.93,2.929 7.678,2.929 10.607,0 16.29,-16.291 37.95,-25.262 60.989,-25.262 23.039,0 44.699,8.972 60.989,25.262 1.465,1.464 3.385,2.197 5.304,2.197 1.919,0 3.839,-0.732 5.304,-2.197 2.929,-2.928 2.929,-7.677 0,-10.606 z"
   id="path143"
   inkscape:connector-curvature="0" />
	<circle
   style="fill:#white"
   cx="73.792999"
   cy="121.272"
   r="8.2309999"
   id="circle145" />
</g>
<g
   id="g149">
</g>
<g
   id="g151">
</g>
<g
   id="g153">
</g>
<g
   id="g155">
</g>
<g
   id="g157">
</g>
<g
   id="g159">
</g>
<g
   id="g161">
</g>
<g
   id="g163">
</g>
<g
   id="g165">
</g>
<g
   id="g167">
</g>
<g
   id="g169">
</g>
<g
   id="g171">
</g>
<g
   id="g173">
</g>
<g
   id="g175">
</g>
<g
   id="g177">
</g>
</svg>